<?xml version="1.0" standalone="no"?>
<!DOCTYPE svg PUBLIC "-//W3C//DTD SVG 20010904//EN"
 "http://www.w3.org/TR/2001/REC-SVG-20010904/DTD/svg10.dtd">
<svg version="1.0" xmlns="http://www.w3.org/2000/svg"
 width="60.000000pt" height="60.000000pt" viewBox="0 0 300.000000 300.000000"
 preserveAspectRatio="xMidYMid meet">
<metadata>
Created by potrace 1.11, written by Peter Selinger 2001-2013
</metadata>
<g transform="translate(0.000000,300.000000) scale(0.100000,-0.100000)"
fill="#000000" stroke="none">
<path d="M1323 2900 c-73 -37 -154 -120 -188 -192 l-25 -53 0 -673 0 -674 -78
-76 c-91 -89 -140 -166 -176 -274 -23 -68 -26 -93 -26 -218 0 -125 3 -150 26
-218 34 -102 85 -183 164 -262 79 -79 160 -130 262 -164 68 -23 93 -26 218
-26 125 0 150 3 218 26 102 34 183 85 262 164 79 79 130 160 164 262 23 68 26
93 26 218 0 125 -3 150 -26 218 -36 108 -85 185 -176 274 l-78 76 0 674 0 673
-25 53 c-34 72 -115 155 -188 192 -57 28 -67 30 -177 30 -110 0 -120 -2 -177
-30z m293 -99 c59 -27 109 -75 138 -133 l26 -52 0 -691 0 -690 59 -43 c93 -68
156 -156 196 -276 36 -106 35 -246 0 -353 -60 -176 -182 -298 -358 -358 -107
-36 -247 -36 -354 0 -176 60 -298 182 -358 358 -35 107 -36 247 0 353 40 120
103 208 196 276 l59 43 0 112 0 113 40 0 40 0 0 40 0 40 -40 0 -40 0 0 100 0
100 120 0 120 0 0 40 0 40 -120 0 -120 0 0 100 0 100 120 0 120 0 0 40 0 40
-120 0 -120 0 0 100 0 100 120 0 120 0 0 40 0 40 -120 0 -120 0 0 118 c0 107
2 123 26 170 29 58 79 106 138 133 56 25 176 25 232 0z"/>
<path d="M1300 1600 l0 -60 80 0 80 0 0 -40 0 -40 -80 0 -80 0 0 -145 0 -145
-41 -26 c-67 -42 -126 -110 -166 -192 -38 -76 -38 -76 -38 -202 0 -126 0 -126
38 -202 83 -170 225 -258 412 -258 187 0 329 88 412 258 38 76 38 76 38 202 0
126 0 126 -38 204 -44 88 -119 168 -191 204 l-46 23 0 240 0 239 -190 0 -190
0 0 -60z"/>
</g>
</svg>
